<mxfile host="65bd71144e">
    <diagram name="TurnstileObject UML" id="turnstile-object-uml">
        <mxGraphModel dx="1568" dy="1940" grid="1" gridSize="10" guides="1" tooltips="1" connect="1" arrows="1" fold="1" page="1" pageScale="1" pageWidth="1400" pageHeight="900" math="0" shadow="0">
            <root>
                <mxCell id="0"/>
                <mxCell id="1" parent="0"/>
                <mxCell id="2" value="" style="rounded=0;whiteSpace=wrap;html=1;" parent="1" vertex="1">
                    <mxGeometry x="60" y="-360" width="790" height="770" as="geometry"/>
                </mxCell>
                <mxCell id="turnstile-object" value="&lt;&lt;class&gt;&gt;&#xa;TurnstileRealistic&#xa;&#xa;+ constructor()&#xa;+ insertCoin(): IStateWithActions&#xa;+ pushThrough(): IStateWithActions" style="swimlane;fontStyle=1;align=center;verticalAlign=top;childLayout=stackLayout;horizontal=1;startSize=40;horizontalStack=0;resizeParent=1;resizeParentMax=0;resizeLast=0;collapsible=1;marginBottom=0;fillColor=#e1d5e7;strokeColor=#9673a6;" parent="1" vertex="1">
                    <mxGeometry x="345" y="-220" width="300" height="90" as="geometry"/>
                </mxCell>
                <mxCell id="locked-state" value="&lt;&lt;class&gt;&gt;&#xa;LockedState&#xa;&#xa;+ afterEntryAction(): void&#xa;+ beforeExitAction(): void&#xa;+ toString(): string" style="swimlane;fontStyle=1;align=center;verticalAlign=top;childLayout=stackLayout;horizontal=1;startSize=40;horizontalStack=0;resizeParent=1;resizeParentMax=0;resizeLast=0;collapsible=1;marginBottom=0;fillColor=#dae8fc;strokeColor=#6c8ebf;" parent="1" vertex="1">
                    <mxGeometry x="180" y="-30" width="200" height="90" as="geometry"/>
                </mxCell>
                <mxCell id="unlocked-state" value="&lt;&lt;class&gt;&gt;&#xa;UnlockedState&#xa;&#xa;+ afterEntryAction(): void&#xa;+ beforeExitAction(): void&#xa;+ toString(): string" style="swimlane;fontStyle=1;align=center;verticalAlign=top;childLayout=stackLayout;horizontal=1;startSize=40;horizontalStack=0;resizeParent=1;resizeParentMax=0;resizeLast=0;collapsible=1;marginBottom=0;fillColor=#dae8fc;strokeColor=#6c8ebf;" parent="1" vertex="1">
                    <mxGeometry x="600" y="-30" width="200" height="90" as="geometry"/>
                </mxCell>
                <mxCell id="turnstile-signal" value="&lt;&lt;enum&gt;&gt;&#xa;TurnstileSignal&#xa;&#xa;+ COIN: &quot;coin&quot;&#xa;+ PUSH: &quot;push&quot;" style="swimlane;fontStyle=1;align=center;verticalAlign=top;childLayout=stackLayout;horizontal=1;startSize=40;horizontalStack=0;resizeParent=1;resizeParentMax=0;resizeLast=0;collapsible=1;marginBottom=0;fillColor=#ffe6cc;strokeColor=#d79b00;" parent="1" vertex="1">
                    <mxGeometry x="60" y="-220" width="200" height="80" as="geometry"/>
                </mxCell>
                <mxCell id="uses1" value="uses" style="endArrow=open;endSize=12;dashed=1;html=1;" parent="1" source="turnstile-object" target="turnstile-signal" edge="1">
                    <mxGeometry width="160" relative="1" as="geometry">
                        <mxPoint x="360" y="30" as="sourcePoint"/>
                        <mxPoint x="130" y="-40" as="targetPoint"/>
                    </mxGeometry>
                </mxCell>
                <mxCell id="uses2" value="uses" style="endArrow=open;endSize=12;dashed=1;html=1;" parent="1" target="locked-state" edge="1">
                    <mxGeometry x="-0.0286" width="160" relative="1" as="geometry">
                        <mxPoint x="440" y="-130" as="sourcePoint"/>
                        <mxPoint x="130" y="130" as="targetPoint"/>
                        <Array as="points">
                            <mxPoint x="440" y="-90"/>
                            <mxPoint x="280" y="-90"/>
                        </Array>
                        <mxPoint as="offset"/>
                    </mxGeometry>
                </mxCell>
                <mxCell id="uses3" value="uses" style="endArrow=open;endSize=12;dashed=1;html=1;" parent="1" target="unlocked-state" edge="1">
                    <mxGeometry width="160" relative="1" as="geometry">
                        <mxPoint x="530" y="-130" as="sourcePoint"/>
                        <mxPoint x="250" y="110" as="targetPoint"/>
                        <Array as="points">
                            <mxPoint x="530" y="-90"/>
                            <mxPoint x="700" y="-90"/>
                        </Array>
                    </mxGeometry>
                </mxCell>
                <mxCell id="title" value="TurnstileRealistic System - UML Class Diagram" style="text;strokeColor=none;align=center;fillColor=none;html=1;verticalAlign=middle;whiteSpace=wrap;rounded=0;fontSize=16;fontStyle=1;" parent="1" vertex="1">
                    <mxGeometry x="220" y="-320" width="400" height="30" as="geometry"/>
                </mxCell>
                <mxCell id="3" value="&lt;&lt;class&gt;&gt;&#xa;CoinAcceptor&#xa;&#xa;+ openSlot(): void : void&#xa;+closeSlot():  void&#xa;+ isSlotAvailable(): boolean" style="swimlane;fontStyle=1;align=center;verticalAlign=top;childLayout=stackLayout;horizontal=1;startSize=40;horizontalStack=0;resizeParent=1;resizeParentMax=0;resizeLast=0;collapsible=1;marginBottom=0;fillColor=#ffe8fc;strokeColor=#6c8ebf;" vertex="1" parent="1">
                    <mxGeometry x="80" y="110" width="200" height="100" as="geometry"/>
                </mxCell>
                <mxCell id="4" value="&lt;&lt;class&gt;&gt;&#xa;StatusIndicator&#xa;&#xa;+ showRed(): void&#xa;+ showGreen(): void&#xa;" style="swimlane;fontStyle=1;align=center;verticalAlign=top;childLayout=stackLayout;horizontal=1;startSize=40;horizontalStack=0;resizeParent=1;resizeParentMax=0;resizeLast=0;collapsible=1;marginBottom=0;fillColor=#ffe8fc;strokeColor=#6c8ebf;" vertex="1" parent="1">
                    <mxGeometry x="320" y="110" width="200" height="90" as="geometry"/>
                </mxCell>
                <mxCell id="5" value="&lt;&lt;class&gt;&gt;&#xa;BarrierArms&#xa;&#xa;+lock(): void&#xa;+ unlock(): void&#xa;+ geIsLocked(): boolean" style="swimlane;fontStyle=1;align=center;verticalAlign=top;childLayout=stackLayout;horizontal=1;startSize=40;horizontalStack=0;resizeParent=1;resizeParentMax=0;resizeLast=0;collapsible=1;marginBottom=0;fillColor=#ffe8fc;strokeColor=#6c8ebf;" vertex="1" parent="1">
                    <mxGeometry x="600" y="110" width="200" height="100" as="geometry"/>
                </mxCell>
                <mxCell id="8" value="" style="endArrow=diamondThin;endFill=0;endSize=24;html=1;exitX=0.548;exitY=0;exitDx=0;exitDy=0;exitPerimeter=0;" edge="1" parent="1" source="5">
                    <mxGeometry width="160" relative="1" as="geometry">
                        <mxPoint x="460" y="80" as="sourcePoint"/>
                        <mxPoint x="710" y="60" as="targetPoint"/>
                    </mxGeometry>
                </mxCell>
                <mxCell id="9" value="" style="endArrow=diamondThin;endFill=0;endSize=24;html=1;exitX=0.548;exitY=0;exitDx=0;exitDy=0;exitPerimeter=0;" edge="1" parent="1">
                    <mxGeometry width="160" relative="1" as="geometry">
                        <mxPoint x="240" y="110" as="sourcePoint"/>
                        <mxPoint x="240" y="60" as="targetPoint"/>
                    </mxGeometry>
                </mxCell>
                <mxCell id="10" value="&lt;&lt;class&gt;&gt;&#xa;Light&#xa;&#xa;+ turnOn(): void&#xa;+ turnOff(): void&#xa;getIsOn(); boolean&#xa;&#xa;" style="swimlane;fontStyle=1;align=center;verticalAlign=top;childLayout=stackLayout;horizontal=1;startSize=40;horizontalStack=0;resizeParent=1;resizeParentMax=0;resizeLast=0;collapsible=1;marginBottom=0;fillColor=#ffe8fc;strokeColor=#6c8ebf;" vertex="1" parent="1">
                    <mxGeometry x="320" y="250" width="200" height="100" as="geometry"/>
                </mxCell>
                <mxCell id="11" value="" style="endArrow=diamondThin;endFill=0;endSize=24;html=1;exitX=0.548;exitY=0;exitDx=0;exitDy=0;exitPerimeter=0;" edge="1" parent="1">
                    <mxGeometry width="160" relative="1" as="geometry">
                        <mxPoint x="419.5" y="250" as="sourcePoint"/>
                        <mxPoint x="419.5" y="200" as="targetPoint"/>
                    </mxGeometry>
                </mxCell>
                <mxCell id="12" value="2" style="text;align=center;fontStyle=1;verticalAlign=middle;spacingLeft=3;spacingRight=3;strokeColor=none;rotatable=0;points=[[0,0.5],[1,0.5]];portConstraint=eastwest;html=1;" vertex="1" parent="1">
                    <mxGeometry x="360" y="200" width="80" height="26" as="geometry"/>
                </mxCell>
                <mxCell id="13" value="1" style="text;align=center;fontStyle=1;verticalAlign=middle;spacingLeft=3;spacingRight=3;strokeColor=none;rotatable=0;points=[[0,0.5],[1,0.5]];portConstraint=eastwest;html=1;" vertex="1" parent="1">
                    <mxGeometry x="390" y="224" width="80" height="26" as="geometry"/>
                </mxCell>
            </root>
        </mxGraphModel>
    </diagram>
</mxfile>